<svg width="33" height="27" viewBox="0 0 33 27" fill="none" xmlns="http://www.w3.org/2000/svg">
<path d="M2.65318 11.7572L21.5087 3.98843C23.3699 3.17919 29.6821 0.58959 29.6821 0.58959C29.6821 0.58959 32.5954 -0.543358 32.3526 2.20809C32.2717 3.34104 31.6243 7.30635 30.9769 11.5954L28.9538 24.3006C28.9538 24.3006 28.7919 26.1618 27.4162 26.4855C26.0405 26.8092 23.7746 25.3526 23.3699 25.0289C23.0462 24.7861 17.3006 21.1445 15.1965 19.3642C14.6301 18.8786 13.9827 17.9075 15.2775 16.7746C18.1908 14.104 21.6705 10.7861 23.7746 8.68207C24.7457 7.71098 25.7168 5.44508 21.6705 8.19653L10.2601 15.8844C10.2601 15.8844 8.96532 16.6936 6.53757 15.9653C4.10983 15.237 1.27746 14.2659 1.27746 14.2659C1.27746 14.2659 -0.664741 13.052 2.65318 11.7572Z" fill="white"/>
</svg>
