<svg width="40" height="40" viewBox="0 0 40 40" fill="none" xmlns="http://www.w3.org/2000/svg">
<circle cx="20" cy="20" r="20" fill="#FF8225"/>
<g clip-path="url(#clip0_175_329)">
<path d="M29.1667 19.1672C28.9457 19.1672 28.7337 19.0794 28.5774 18.9231C28.4211 18.7668 28.3333 18.5548 28.3333 18.3338C28.3316 16.5663 27.6286 14.8716 26.3788 13.6217C25.1289 12.3719 23.4342 11.6689 21.6667 11.6672C21.4457 11.6672 21.2337 11.5794 21.0774 11.4231C20.9211 11.2668 20.8333 11.0548 20.8333 10.8338C20.8333 10.6128 20.9211 10.4008 21.0774 10.2446C21.2337 10.0883 21.4457 10.0005 21.6667 10.0005C23.8761 10.0029 25.9943 10.8817 27.5565 12.4439C29.1188 14.0062 29.9976 16.1244 30 18.3338C30 18.5548 29.9122 18.7668 29.7559 18.9231C29.5996 19.0794 29.3877 19.1672 29.1667 19.1672ZM26.6667 18.3338C26.6667 17.0077 26.1399 15.736 25.2022 14.7983C24.2645 13.8606 22.9928 13.3338 21.6667 13.3338C21.4457 13.3338 21.2337 13.4216 21.0774 13.5779C20.9211 13.7342 20.8333 13.9461 20.8333 14.1672C20.8333 14.3882 20.9211 14.6001 21.0774 14.7564C21.2337 14.9127 21.4457 15.0005 21.6667 15.0005C22.5507 15.0005 23.3986 15.3517 24.0237 15.9768C24.6488 16.6019 25 17.4498 25 18.3338C25 18.5548 25.0878 18.7668 25.2441 18.9231C25.4004 19.0794 25.6123 19.1672 25.8333 19.1672C26.0543 19.1672 26.2663 19.0794 26.4226 18.9231C26.5789 18.7668 26.6667 18.5548 26.6667 18.3338ZM28.4858 28.4705L29.2442 27.5963C29.7268 27.1121 29.9979 26.4563 29.9979 25.7726C29.9979 25.0889 29.7268 24.4331 29.2442 23.9488C29.2183 23.923 27.2133 22.3805 27.2133 22.3805C26.7321 21.9224 26.0929 21.6674 25.4286 21.6683C24.7642 21.6692 24.1258 21.9261 23.6458 22.3855L22.0575 23.7238C20.761 23.1872 19.5832 22.3998 18.5919 21.4068C17.6006 20.4137 16.8152 19.2346 16.2808 17.9372L17.6142 16.3538C18.0739 15.874 18.3311 15.2354 18.3322 14.5708C18.3333 13.9063 18.0782 13.2668 17.62 12.7855C17.62 12.7855 16.0758 10.783 16.05 10.7572C15.5745 10.2786 14.9299 10.0063 14.2554 9.99917C13.5808 9.992 12.9305 10.2505 12.445 10.7188L11.4867 11.5522C5.825 18.1205 18.0167 30.218 24.8017 30.0005C25.4868 30.0045 26.1658 29.8711 26.7986 29.6083C27.4314 29.3456 28.0051 28.9587 28.4858 28.4705Z" fill="white"/>
</g>
<defs>
<clipPath id="clip0_175_329">
<rect width="20" height="20" fill="white" transform="translate(10 10)"/>
</clipPath>
</defs>
</svg>
