<svg width="40" height="40" viewBox="0 0 40 40" fill="none" xmlns="http://www.w3.org/2000/svg">
<circle cx="20" cy="20" r="20" fill="#FF8225"/>
<g clip-path="url(#clip0_175_328)">
<path d="M32.5 14.4189V26.2502C32.5001 27.2067 32.1346 28.1271 31.4784 28.823C30.8222 29.519 29.9249 29.9378 28.97 29.9939L28.75 30.0002H11.25C10.2935 30.0002 9.37311 29.6348 8.67717 28.9786C7.98124 28.3224 7.56237 27.4251 7.50625 26.4702L7.5 26.2502V14.4189L19.3062 22.2902L19.4513 22.3727C19.6221 22.4562 19.8098 22.4996 20 22.4996C20.1902 22.4996 20.3779 22.4562 20.5487 22.3727L20.6938 22.2902L32.5 14.4189Z" fill="white"/>
<path d="M28.7499 10C30.0999 10 31.2837 10.7125 31.9437 11.7838L19.9999 19.7463L8.05615 11.7838C8.36956 11.2747 8.80017 10.848 9.31204 10.5392C9.8239 10.2305 10.4022 10.0486 10.9987 10.0087L11.2499 10H28.7499Z" fill="white"/>
</g>
<defs>
<clipPath id="clip0_175_328">
<rect width="30" height="30" fill="white" transform="translate(5 5)"/>
</clipPath>
</defs>
</svg>
