<svg width="40" height="40" viewBox="0 0 40 40" fill="none" xmlns="http://www.w3.org/2000/svg">
<g clip-path="url(#clip0_170_292)">
<path d="M20.0065 0C11.6567 0 9.21471 0.00861719 8.74003 0.0479999C7.02651 0.190473 5.96026 0.460347 4.79861 1.03884C3.90341 1.48351 3.19738 1.99893 2.50058 2.72146C1.2316 4.03911 0.462512 5.66016 0.184097 7.5871C0.0487445 8.52256 0.00936147 8.71334 0.00136399 13.4916C-0.00170499 15.0844 0.00136399 17.1805 0.00136399 19.9921C0.00136399 28.3375 0.010586 30.7777 0.0505885 31.2516C0.189025 32.9194 0.450508 33.9687 1.00425 35.1165C2.06252 37.3136 4.08366 38.963 6.46477 39.5784C7.28923 39.7907 8.19983 39.9077 9.36884 39.9631C9.86413 39.9846 14.9124 40 19.9638 40C25.0151 40 30.0665 39.9938 30.5495 39.9692C31.9031 39.9055 32.6891 39.8 33.5581 39.5753C35.9546 38.9568 37.9389 37.3321 39.0186 35.1042C39.5616 33.9841 39.837 32.8948 39.9616 31.314C39.9886 30.9694 40 25.4745 40 19.9869C40 14.4985 39.9877 9.01368 39.9606 8.66903C39.8345 7.06274 39.5592 5.98266 38.9987 4.84102C38.5387 3.90647 38.0281 3.20856 37.2867 2.49499C35.9635 1.23087 34.3454 0.461571 32.4171 0.183398C31.4828 0.0483024 31.2967 0.00829984 26.5161 0H20.0065Z" fill="url(#paint0_radial_170_292)"/>
<path d="M20.0065 0C11.6567 0 9.21471 0.00861719 8.74003 0.0479999C7.02651 0.190473 5.96026 0.460347 4.79861 1.03884C3.90341 1.48351 3.19738 1.99893 2.50058 2.72146C1.2316 4.03911 0.462512 5.66016 0.184097 7.5871C0.0487445 8.52256 0.00936147 8.71334 0.00136399 13.4916C-0.00170499 15.0844 0.00136399 17.1805 0.00136399 19.9921C0.00136399 28.3375 0.010586 30.7777 0.0505885 31.2516C0.189025 32.9194 0.450508 33.9687 1.00425 35.1165C2.06252 37.3136 4.08366 38.963 6.46477 39.5784C7.28923 39.7907 8.19983 39.9077 9.36884 39.9631C9.86413 39.9846 14.9124 40 19.9638 40C25.0151 40 30.0665 39.9938 30.5495 39.9692C31.9031 39.9055 32.6891 39.8 33.5581 39.5753C35.9546 38.9568 37.9389 37.3321 39.0186 35.1042C39.5616 33.9841 39.837 32.8948 39.9616 31.314C39.9886 30.9694 40 25.4745 40 19.9869C40 14.4985 39.9877 9.01368 39.9606 8.66903C39.8345 7.06274 39.5592 5.98266 38.9987 4.84102C38.5387 3.90647 38.0281 3.20856 37.2867 2.49499C35.9635 1.23087 34.3454 0.461571 32.4171 0.183398C31.4828 0.0483024 31.2967 0.00829984 26.5161 0H20.0065Z" fill="url(#paint1_radial_170_292)"/>
<path d="M20.0065 0C11.6567 0 9.21471 0.00861719 8.74003 0.0479999C7.02651 0.190473 5.96026 0.460347 4.79861 1.03884C3.90341 1.48351 3.19738 1.99893 2.50058 2.72146C1.2316 4.03911 0.462512 5.66016 0.184097 7.5871C0.0487445 8.52256 0.00936147 8.71334 0.00136399 13.4916C-0.00170499 15.0844 0.00136399 17.1805 0.00136399 19.9921C0.00136399 28.3375 0.010586 30.7777 0.0505885 31.2516C0.189025 32.9194 0.450508 33.9687 1.00425 35.1165C2.06252 37.3136 4.08366 38.963 6.46477 39.5784C7.28923 39.7907 8.19983 39.9077 9.36884 39.9631C9.86413 39.9846 14.9124 40 19.9638 40C25.0151 40 30.0665 39.9938 30.5495 39.9692C31.9031 39.9055 32.6891 39.8 33.5581 39.5753C35.9546 38.9568 37.9389 37.3321 39.0186 35.1042C39.5616 33.9841 39.837 32.8948 39.9616 31.314C39.9886 30.9694 40 25.4745 40 19.9869C40 14.4985 39.9877 9.01368 39.9606 8.66903C39.8345 7.06274 39.5592 5.98266 38.9987 4.84102C38.5387 3.90647 38.0281 3.20856 37.2867 2.49499C35.9635 1.23087 34.3454 0.461571 32.4171 0.183398C31.4828 0.0483024 31.2967 0.00829984 26.5161 0H20.0065Z" fill="url(#paint2_radial_170_292)"/>
<path d="M20.0065 0C11.6567 0 9.21471 0.00861719 8.74003 0.0479999C7.02651 0.190473 5.96026 0.460347 4.79861 1.03884C3.90341 1.48351 3.19738 1.99893 2.50058 2.72146C1.2316 4.03911 0.462512 5.66016 0.184097 7.5871C0.0487445 8.52256 0.00936147 8.71334 0.00136399 13.4916C-0.00170499 15.0844 0.00136399 17.1805 0.00136399 19.9921C0.00136399 28.3375 0.010586 30.7777 0.0505885 31.2516C0.189025 32.9194 0.450508 33.9687 1.00425 35.1165C2.06252 37.3136 4.08366 38.963 6.46477 39.5784C7.28923 39.7907 8.19983 39.9077 9.36884 39.9631C9.86413 39.9846 14.9124 40 19.9638 40C25.0151 40 30.0665 39.9938 30.5495 39.9692C31.9031 39.9055 32.6891 39.8 33.5581 39.5753C35.9546 38.9568 37.9389 37.3321 39.0186 35.1042C39.5616 33.9841 39.837 32.8948 39.9616 31.314C39.9886 30.9694 40 25.4745 40 19.9869C40 14.4985 39.9877 9.01368 39.9606 8.66903C39.8345 7.06274 39.5592 5.98266 38.9987 4.84102C38.5387 3.90647 38.0281 3.20856 37.2867 2.49499C35.9635 1.23087 34.3454 0.461571 32.4171 0.183398C31.4828 0.0483024 31.2967 0.00829984 26.5161 0H20.0065Z" fill="url(#paint3_radial_170_292)"/>
<path d="M20.0081 5.13574C15.969 5.13574 15.4621 5.15338 13.8757 5.22553C12.2924 5.29797 11.2117 5.54845 10.2661 5.91597C9.28792 6.29554 8.45816 6.8033 7.63152 7.62964C6.80426 8.4557 6.29611 9.28482 5.91501 10.2619C5.54629 11.2072 5.29532 12.2874 5.22407 13.8689C5.15312 15.4541 5.13452 15.9609 5.13452 19.997C5.13452 24.0331 5.1525 24.538 5.22437 26.1232C5.29719 27.7053 5.54785 28.7853 5.91531 29.7302C6.29549 30.7076 6.80362 31.5368 7.63058 32.3628C8.45694 33.1895 9.28668 33.6985 10.2642 34.078C11.2105 34.4455 12.2915 34.696 13.8745 34.7685C15.4609 34.8406 15.9674 34.8583 20.0062 34.8583C24.0456 34.8583 24.5509 34.8406 26.1373 34.7685C27.7206 34.696 28.8025 34.4455 29.7488 34.078C30.7266 33.6985 31.5552 33.1895 32.3815 32.3628C33.2088 31.5368 33.7169 30.7076 34.098 29.7305C34.4636 28.7853 34.7146 27.705 34.789 26.1236C34.8602 24.5384 34.8788 24.0331 34.8788 19.997C34.8788 15.9609 34.8602 15.4544 34.789 13.8692C34.7146 12.2871 34.4636 11.2072 34.098 10.2623C33.7169 9.28482 33.2088 8.45568 32.3815 7.62964C31.5542 6.80298 30.7269 6.29523 29.7479 5.91596C28.7997 5.54845 27.7184 5.29797 26.1351 5.22553C24.5487 5.15338 24.0437 5.13574 20.0034 5.13574H20.0081ZM18.6739 7.81387C19.0699 7.81325 19.5117 7.81387 20.0081 7.81387C23.979 7.81387 24.4496 7.82811 26.0177 7.89932C27.4678 7.96558 28.2547 8.20768 28.779 8.4111C29.473 8.68046 29.9678 9.00246 30.4881 9.5226C31.0086 10.0427 31.3308 10.5381 31.601 11.2316C31.8046 11.7549 32.0472 12.5413 32.1132 13.9903C32.1844 15.5569 32.1999 16.0275 32.1999 19.9936C32.1999 23.9597 32.1844 24.4303 32.1132 25.9969C32.0469 27.4459 31.8046 28.2323 31.601 28.7555C31.3315 29.4491 31.0086 29.9429 30.4881 30.4627C29.9675 30.9829 29.4733 31.3049 28.779 31.5742C28.2554 31.7786 27.4678 32.0201 26.0177 32.0863C24.4499 32.1575 23.979 32.173 20.0081 32.173C16.0368 32.173 15.5662 32.1575 13.9984 32.0863C12.5484 32.0195 11.7614 31.7773 11.2368 31.5739C10.5428 31.3046 10.047 30.9826 9.5265 30.4624C9.00597 29.9423 8.68374 29.4481 8.41355 28.7543C8.20998 28.2311 7.96738 27.4447 7.90139 25.9957C7.83013 24.4291 7.81587 23.9585 7.81587 19.9899C7.81587 16.0213 7.83013 15.5532 7.90139 13.9866C7.9677 12.5376 8.20998 11.7512 8.41355 11.2273C8.6831 10.5338 9.00597 10.0384 9.5265 9.51827C10.047 8.99812 10.5428 8.67613 11.2368 8.40615C11.7611 8.2018 12.5484 7.96032 13.9984 7.89374C15.3704 7.83182 15.9021 7.81325 18.6739 7.81014L18.6739 7.81387ZM27.9468 10.2814C26.9615 10.2814 26.1621 11.0793 26.1621 12.0642C26.1621 13.0487 26.9615 13.8475 27.9468 13.8475C28.932 13.8475 29.7314 13.0487 29.7314 12.0642C29.7314 11.0796 28.932 10.2808 27.9468 10.2808L27.9468 10.2814ZM20.0081 12.3651C15.7902 12.3651 12.3705 15.7823 12.3705 19.997C12.3705 24.2117 15.7902 27.6273 20.0081 27.6273C24.2259 27.6273 27.6444 24.2117 27.6444 19.997C27.6444 15.7823 24.2256 12.3651 20.0078 12.3651H20.0081ZM20.0081 15.0432C22.7458 15.0432 24.9655 17.261 24.9655 19.997C24.9655 22.7327 22.7458 24.9508 20.0081 24.9508C17.27 24.9508 15.0506 22.7327 15.0506 19.997C15.0506 17.261 17.27 15.0432 20.0081 15.0432Z" fill="white"/>
</g>
<defs>
<radialGradient id="paint0_radial_170_292" cx="0" cy="0" r="1" gradientUnits="userSpaceOnUse" gradientTransform="translate(38.7084 18.7485) rotate(164.25) scale(25.5577 18.4131)">
<stop stop-color="#FF005F"/>
<stop offset="1" stop-color="#FC01D8"/>
</radialGradient>
<radialGradient id="paint1_radial_170_292" cx="0" cy="0" r="1" gradientUnits="userSpaceOnUse" gradientTransform="translate(10.6247 43.0808) rotate(-90) scale(31.9288 33.8757)">
<stop stop-color="#FFCC00"/>
<stop offset="0.1242" stop-color="#FFCC00"/>
<stop offset="0.5672" stop-color="#FE4A05"/>
<stop offset="0.6942" stop-color="#FF0F3F"/>
<stop offset="1" stop-color="#FE0657" stop-opacity="0"/>
</radialGradient>
<radialGradient id="paint2_radial_170_292" cx="0" cy="0" r="1" gradientUnits="userSpaceOnUse" gradientTransform="translate(21.0108 39.4359) rotate(-59.8703) scale(13.2028 17.1886)">
<stop stop-color="#FFCC00"/>
<stop offset="1" stop-color="#FFCC00" stop-opacity="0"/>
</radialGradient>
<radialGradient id="paint3_radial_170_292" cx="0" cy="0" r="1" gradientUnits="userSpaceOnUse" gradientTransform="translate(5.42714 1.62879) rotate(164.274) scale(25.2742 8.61091)">
<stop stop-color="#780CFF"/>
<stop offset="1" stop-color="#820BFF" stop-opacity="0"/>
</radialGradient>
<clipPath id="clip0_170_292">
<rect width="40" height="40" fill="white"/>
</clipPath>
</defs>
</svg>
