<svg width="64" height="64" viewBox="0 0 64 64" fill="none" xmlns="http://www.w3.org/2000/svg">
<rect width="64" height="64" rx="32" fill="#FF8225" fill-opacity="0.1"/>
<g clip-path="url(#clip0_22_15)">
<path d="M32 45.3333H22.6667C20.4613 45.3333 18.6667 43.5387 18.6667 41.3333V22.6667C18.6667 20.4613 20.4613 18.6667 22.6667 18.6667H28.6867C28.904 18.6667 29.12 18.6773 29.3333 18.6973V25.3333C29.3333 27.5387 31.128 29.3333 33.3333 29.3333H41.084C41.496 29.3333 41.8853 29.1427 42.1373 28.8173C42.3893 28.492 42.4773 28.068 42.376 27.6693C41.9613 26.048 41.1173 24.564 39.932 23.38L35.2867 18.7347C33.524 16.972 31.18 16 28.6867 16H22.6667C18.9907 16 16 18.9907 16 22.6667V41.3333C16 45.0093 18.9907 48 22.6667 48H32C32.7373 48 33.3333 47.404 33.3333 46.6667C33.3333 45.9293 32.7373 45.3333 32 45.3333ZM32 19.5453C32.5067 19.836 32.976 20.196 33.4013 20.62L38.0467 25.2653C38.4653 25.684 38.8253 26.156 39.1187 26.6667H33.3333C32.5973 26.6667 32 26.0693 32 25.3333V19.5453ZM30.6667 40C30.6667 40.7373 30.0707 41.3333 29.3333 41.3333H22.6667C21.9293 41.3333 21.3333 40.7373 21.3333 40C21.3333 39.2627 21.9293 38.6667 22.6667 38.6667H29.3333C30.0707 38.6667 30.6667 39.2627 30.6667 40ZM30.6667 34.6667C30.6667 35.404 30.0707 36 29.3333 36H22.6667C21.9293 36 21.3333 35.404 21.3333 34.6667C21.3333 33.9293 21.9293 33.3333 22.6667 33.3333H29.3333C30.0707 33.3333 30.6667 33.9293 30.6667 34.6667ZM46.1733 32.42L41.0867 30.7333C40.816 30.6427 40.5187 30.6427 40.248 30.7333L35.1613 32.42C34.0693 32.7813 33.3347 33.7987 33.3347 34.948V39.38C33.3347 44.14 38.288 46.984 39.8013 47.74C39.8013 47.74 40.2093 48.0187 40.6693 48.0187C41.1293 48.0187 41.4453 47.8107 41.4453 47.8107C42.9827 47.192 48.0013 44.7547 48.0013 39.3813V34.9493C48.0013 33.8 47.2667 32.7827 46.1747 32.4213L46.1733 32.42ZM45.3333 39.3813C45.3333 42.8227 42.1027 44.6133 40.728 45.22C39.5093 44.5667 36 42.4227 36 39.3813V34.952L40.6667 33.4053L45.3333 34.9493V39.3813Z" fill="#FF8225"/>
</g>
<defs>
<clipPath id="clip0_22_15">
<rect width="32" height="32" fill="white" transform="translate(16 16)"/>
</clipPath>
</defs>
</svg>
