<svg width="64" height="64" viewBox="0 0 64 64" fill="none" xmlns="http://www.w3.org/2000/svg">
<rect width="64" height="64" rx="32" fill="#FF8225" fill-opacity="0.1"/>
<g clip-path="url(#clip0_22_19)">
<path d="M24 19.3333C24 17.492 25.492 16 27.3333 16C29.1747 16 30.6667 17.492 30.6667 19.3333C30.6667 21.1747 29.1747 22.6667 27.3333 22.6667C25.492 22.6667 24 21.1747 24 19.3333ZM23.6213 28.264C25.632 26.204 29.036 26.204 31.0453 28.264C31.3067 28.532 31.6533 28.6667 32 28.6667C32.336 28.6667 32.672 28.54 32.9307 28.288C33.4587 27.7733 33.468 26.9293 32.9547 26.4027C31.4427 24.8533 29.4467 24 27.3333 24C25.22 24 23.224 24.8533 21.712 26.4027C21.1973 26.9307 21.208 27.7733 21.736 28.288C22.2627 28.8013 23.1067 28.7933 23.6213 28.264ZM46.9813 33.3533L37.9093 43.536C35.3813 46.3733 31.752 48 27.9533 48H21.3333C18.392 48 16 45.608 16 42.6667V36C16 33.0587 18.392 30.6667 21.3333 30.6667H33.1427C34.6627 30.6667 35.9947 31.4787 36.728 32.692L41.0173 27.98C41.7387 27.1867 42.7253 26.7227 43.7973 26.672C44.856 26.632 45.8947 26.9907 46.6893 27.7147C48.308 29.1893 48.4387 31.72 46.98 33.3547L46.9813 33.3533ZM44.8947 29.684C44.6293 29.4413 44.2827 29.308 43.924 29.3333C43.564 29.3507 43.232 29.5067 42.9907 29.772L37.0893 36.2587C36.576 37.6853 35.304 38.7787 33.7373 39.0027L26.856 39.9853C26.1213 40.084 25.4507 39.5827 25.3467 38.8533C25.2427 38.124 25.7493 37.448 26.4787 37.344L33.36 36.3613C34.1067 36.256 34.6667 35.608 34.6667 34.8547C34.6667 34.0147 33.9827 33.3307 33.1427 33.3307H21.3333C19.8627 33.3307 18.6667 34.5267 18.6667 35.9973V42.664C18.6667 44.1347 19.8627 45.3307 21.3333 45.3307H27.9533C30.992 45.3307 33.8947 44.028 35.9187 41.76L44.9907 31.576C45.4813 31.0267 45.4387 30.176 44.8947 29.6813V29.684Z" fill="#FF8225"/>
</g>
<defs>
<clipPath id="clip0_22_19">
<rect width="32" height="32" fill="white" transform="translate(16 16)"/>
</clipPath>
</defs>
</svg>
