<svg width="64" height="64" viewBox="0 0 64 64" fill="none" xmlns="http://www.w3.org/2000/svg">
<rect width="64" height="64" rx="32" fill="#FF8225" fill-opacity="0.1"/>
<g clip-path="url(#clip0_22_7)">
<path d="M27.3334 28.6667C27.3334 29.4013 27.5041 30.0973 27.8081 30.716C27.1548 31.5533 26.7481 32.592 26.6935 33.724C25.4388 32.4067 24.6668 30.6253 24.6668 28.668C24.6668 24.12 28.8295 20.5253 33.5455 21.4933C36.3215 22.064 38.5708 24.3 39.1628 27.072C39.3414 27.9093 39.3748 28.7293 39.2841 29.5133C39.2068 30.1773 38.6241 30.668 37.9548 30.668H37.8948C37.1054 30.668 36.5508 29.9653 36.6375 29.1813C36.6961 28.6547 36.6655 28.1013 36.5308 27.5373C36.1334 25.8667 34.7708 24.5133 33.0975 24.128C30.0495 23.428 27.3321 25.7373 27.3321 28.668L27.3334 28.6667ZM22.1468 26.94C22.5121 24.816 23.5508 22.88 25.1614 21.3693C27.2001 19.4587 29.8695 18.5147 32.6681 18.688C37.9388 19.0293 42.0601 23.6467 41.9988 29.1747C41.9735 31.4893 40.0348 33.332 37.7215 33.332H34.5135C34.1881 32.2267 33.1775 31.4133 31.9668 31.4133C30.4935 31.4133 29.3001 32.6067 29.3001 34.08C29.3001 35.5533 30.4935 36.7467 31.9668 36.7467C32.6841 36.7467 33.3335 36.46 33.8121 35.9987H37.7215C41.4801 35.9987 44.6121 33.0053 44.6655 29.248C44.7641 22.2867 39.5348 16.46 32.8401 16.028C29.2881 15.7973 25.9188 17.004 23.3388 19.4253C21.3401 21.2987 20.0108 23.7787 19.5321 26.4467C19.3868 27.2573 20.0281 28.0013 20.8508 28.0013C21.4801 28.0013 22.0415 27.5627 22.1468 26.9413V26.94ZM32.0001 38.6667C27.0735 38.6667 22.8108 41.7227 21.3935 46.2693C21.1734 46.972 21.5668 47.72 22.2695 47.94C22.9708 48.152 23.7188 47.7653 23.9388 47.064C24.9908 43.6907 28.3041 41.3333 31.9988 41.3333C35.6935 41.3333 39.0081 43.6907 40.0588 47.064C40.2375 47.6347 40.7628 48 41.3321 48C41.4641 48 41.5961 47.98 41.7295 47.94C42.4321 47.72 42.8241 46.972 42.6055 46.2693C41.1881 41.7227 36.9254 38.6667 31.9988 38.6667H32.0001Z" fill="#FF8225"/>
</g>
<defs>
<clipPath id="clip0_22_7">
<rect width="32" height="32" fill="white" transform="translate(16 16)"/>
</clipPath>
</defs>
</svg>
