<svg width="167" height="56" viewBox="0 0 167 56" fill="none" xmlns="http://www.w3.org/2000/svg">
<rect width="56" height="56" rx="16" fill="#FF8225"/>
<path d="M41.2031 13.0726C39.8494 11.7498 38.2388 10.6971 36.4631 9.97446C34.6874 9.25185 32.7814 8.87352 30.8541 8.86107C28.9267 8.84862 27.0157 9.20229 25.2301 9.90189C23.4446 10.6015 21.8194 11.6333 20.4474 12.9385C19.0754 14.2436 17.9835 15.7965 17.234 17.5085C16.4845 19.2205 16.0921 21.058 16.0792 22.9162C16.0663 24.7744 16.4331 26.6169 17.1588 28.3384C17.8844 30.0599 18.9546 31.6268 20.3083 32.9495L30.7557 23.0111L41.2031 13.0726Z" fill="white"/>
<path d="M15.1604 41.8091C16.4952 43.1488 18.0908 44.2218 19.8561 44.9667C21.6214 45.7117 23.5217 46.1141 25.4487 46.1509C27.3757 46.1876 29.2916 45.8581 31.0869 45.1811C32.8822 44.5041 34.5219 43.4929 35.9123 42.2052C37.3026 40.9175 38.4165 39.3785 39.1902 37.6761C39.9639 35.9737 40.3824 34.1413 40.4217 32.2834C40.461 30.4255 40.1203 28.5786 39.4192 26.848C38.7181 25.1175 37.6702 23.5373 36.3354 22.1975L25.7479 32.0033L15.1604 41.8091Z" fill="white"/>
<path d="M73.248 23.616C73.248 24.3413 73.4293 24.928 73.792 25.376C74.1547 25.8027 74.656 26.144 75.296 26.4C75.936 26.6347 76.64 26.8373 77.408 27.008C78.1973 27.1573 79.008 27.3173 79.84 27.488C80.672 27.6373 81.472 27.8507 82.24 28.128C83.0293 28.384 83.7333 28.7467 84.352 29.216C84.992 29.664 85.4933 30.2507 85.856 30.976C86.24 31.7013 86.432 32.6187 86.432 33.728C86.432 35.1573 86.0693 36.3733 85.344 37.376C84.64 38.3787 83.6693 39.136 82.432 39.648C81.1947 40.16 79.776 40.416 78.176 40.416C76.576 40.416 75.1467 40.1707 73.888 39.68C72.6507 39.1893 71.616 38.4427 70.784 37.44C69.9733 36.4373 69.4187 35.1787 69.12 33.664H72.864C73.184 34.9013 73.792 35.8507 74.688 36.512C75.584 37.152 76.7573 37.472 78.208 37.472C79.7013 37.472 80.832 37.1733 81.6 36.576C82.368 35.9787 82.752 35.1893 82.752 34.208C82.752 33.44 82.5707 32.8213 82.208 32.352C81.8453 31.8613 81.344 31.488 80.704 31.232C80.064 30.9547 79.3493 30.7307 78.56 30.56C77.792 30.368 76.992 30.1867 76.16 30.016C75.328 29.8453 74.5173 29.632 73.728 29.376C72.96 29.12 72.256 28.7787 71.616 28.352C70.9973 27.904 70.496 27.328 70.112 26.624C69.7493 25.92 69.568 25.0133 69.568 23.904C69.568 22.816 69.8667 21.8133 70.464 20.896C71.0613 19.9573 71.9253 19.2107 73.056 18.656C74.208 18.1013 75.616 17.824 77.28 17.824C78.7093 17.824 80.0213 18.0693 81.216 18.56C82.432 19.0293 83.4453 19.7653 84.256 20.768C85.0667 21.7493 85.6 23.04 85.856 24.64H82.048C81.7493 23.296 81.184 22.3147 80.352 21.696C79.52 21.0773 78.464 20.768 77.184 20.768C75.9467 20.768 74.976 21.0347 74.272 21.568C73.5893 22.08 73.248 22.7627 73.248 23.616ZM89.7705 34.912V19.008H93.1945V34.72C93.1945 35.7013 93.3865 36.4267 93.7705 36.896C94.1758 37.3653 94.9652 37.6 96.1385 37.6H96.8105V40.096C96.6398 40.2027 96.3518 40.2773 95.9465 40.32C95.5625 40.384 95.1358 40.416 94.6665 40.416C93.0238 40.416 91.7972 39.9573 90.9865 39.04C90.1758 38.1227 89.7705 36.7467 89.7705 34.912ZM87.4665 25.6V22.944H96.8745V25.6H87.4665ZM113.272 22.944V40H109.88V22.944H113.272ZM109.88 32.928H111.192C111.106 34.6133 110.776 36.0107 110.2 37.12C109.645 38.2293 108.898 39.0613 107.96 39.616C107.042 40.1493 105.986 40.416 104.792 40.416C103.64 40.416 102.637 40.192 101.784 39.744C100.93 39.2747 100.269 38.592 99.7995 37.696C99.3515 36.8 99.1275 35.68 99.1275 34.336V22.944H102.552V33.632C102.552 34.4427 102.669 35.1467 102.904 35.744C103.138 36.3413 103.501 36.8 103.992 37.12C104.482 37.4187 105.101 37.568 105.848 37.568C106.466 37.568 107.021 37.44 107.512 37.184C108.024 36.928 108.45 36.5867 108.792 36.16C109.133 35.712 109.4 35.2107 109.592 34.656C109.784 34.1013 109.88 33.5253 109.88 32.928ZM123.52 40.416C122.027 40.416 120.736 40.064 119.648 39.36C118.56 38.6347 117.728 37.6 117.152 36.256C116.576 34.912 116.288 33.3227 116.288 31.488C116.288 28.5867 116.939 26.368 118.24 24.832C119.541 23.2747 121.301 22.496 123.52 22.496C125.44 22.496 126.965 23.264 128.096 24.8C129.248 26.336 129.824 28.5653 129.824 31.488C129.824 33.3227 129.568 34.912 129.056 36.256C128.544 37.5787 127.808 38.6027 126.848 39.328C125.909 40.0533 124.8 40.416 123.52 40.416ZM123.968 37.536C125.333 37.536 126.368 37.024 127.072 36C127.797 34.9547 128.16 33.4507 128.16 31.488C128.16 29.5253 127.787 28.0213 127.04 26.976C126.315 25.9093 125.291 25.376 123.968 25.376C122.603 25.376 121.557 25.8987 120.832 26.944C120.128 27.9893 119.776 29.504 119.776 31.488C119.776 33.4293 120.139 34.9227 120.864 35.968C121.611 37.0133 122.645 37.536 123.968 37.536ZM128.16 40V16.96H131.584V40H128.16ZM135.394 40V22.944H138.818V40H135.394ZM135.394 20.832V16.96H138.818V20.832H135.394ZM143.02 22.048C143.02 20.192 143.415 18.816 144.204 17.92C145.015 17.0027 146.21 16.544 147.788 16.544C148.236 16.544 148.62 16.576 148.94 16.64C149.26 16.704 149.506 16.7787 149.676 16.864V19.168H149.356C148.183 19.168 147.394 19.4133 146.988 19.904C146.604 20.3733 146.412 21.0987 146.412 22.08V40H143.02V22.048ZM140.716 25.6V22.944H149.676V25.6H140.716ZM152.689 47.456C152.326 47.456 151.963 47.4133 151.601 47.328C151.259 47.264 150.993 47.2 150.801 47.136V44.512H151.729C152.198 44.512 152.614 44.4693 152.977 44.384C153.339 44.32 153.67 44.1493 153.969 43.872C154.267 43.616 154.566 43.2213 154.865 42.688C155.185 42.176 155.526 41.472 155.889 40.576L156.401 39.392L149.553 22.944H153.233L157.457 33.568L158.385 36.576H157.969L158.929 33.568L163.025 22.944H166.513L158.769 41.984C158.342 43.0507 157.915 43.936 157.489 44.64C157.083 45.344 156.657 45.8987 156.209 46.304C155.761 46.7307 155.249 47.0293 154.673 47.2C154.118 47.3707 153.457 47.456 152.689 47.456Z" fill="#FF8225"/>
</svg>
